<?xml version="1.0" encoding="iso-8859-1"?>
<!-- Generator: Adobe Illustrator 19.0.0, SVG Export Plug-In . SVG Version: 6.00 Build 0)  -->
<svg version="1.1" id="Capa_1" xmlns="http://www.w3.org/2000/svg" xmlns:xlink="http://www.w3.org/1999/xlink" x="0px" y="0px"
	 viewBox="0 0 512 512" style="enable-background:new 0 0 512 512;" xml:space="preserve">
<g>
	<g>
		<path d="M481.321,214.693H337.073L474.284,73.839c5.781-5.935,5.656-15.431-0.278-21.212c-5.935-5.78-15.432-5.655-21.211,0.278
			L295.587,214.287c-0.127,0.131-0.236,0.272-0.358,0.406h-1.723l11.748-161.73c0.991-13.636-3.781-27.198-13.092-37.21
			C282.852,5.742,269.671,0,255.999,0c-13.672,0-26.853,5.742-36.164,15.753c-9.311,10.012-14.083,23.574-13.092,37.21
			l11.748,161.73H30.677c-16.542,0-30,13.458-30,30v51.176c0,16.542,13.458,30,30,30h1.613l20.838,147.363
			C56.252,495.334,75.44,512,97.761,512h316.476c22.321,0,41.509-16.666,44.634-38.767l20.838-147.364h1.613
			c16.542,0,30-13.458,30-30v-51.176C511.321,228.151,497.863,214.693,481.321,214.693z M241.804,36.184
			c3.708-3.987,8.749-6.184,14.195-6.184c5.446,0,10.487,2.196,14.195,6.184c3.708,3.988,5.534,9.175,5.139,14.605l-11.906,163.904
			h-14.857L236.665,50.789C236.27,45.358,238.096,40.171,241.804,36.184z M429.166,469.033c-1.045,7.393-7.464,12.967-14.93,12.967
			H97.761c-7.466,0-13.884-5.574-14.93-12.968L62.588,325.869h386.823L429.166,469.033z M481.321,295.869H30.677v-51.176h450.644
			l0.019,51.175C481.34,295.868,481.334,295.869,481.321,295.869z"/>
	</g>
</g>
<g>
	<g>
		<path d="M255.999,352.664c-8.284,0-15,6.716-15,15v75.196c0,8.285,6.716,15,15,15c8.284,0,15-6.716,15-15v-75.196
			C270.999,359.38,264.283,352.664,255.999,352.664z"/>
	</g>
</g>
<g>
	<g>
		<path d="M352.249,352.664c-8.284,0-15,6.716-15,15v75.196c0,8.285,6.716,15,15,15s15-6.716,15-15v-75.196
			C367.249,359.38,360.533,352.664,352.249,352.664z"/>
	</g>
</g>
<g>
	<g>
		<path d="M159.749,352.664c-8.284,0-15,6.716-15,15v75.196c0,8.285,6.715,15,15,15c8.284,0,15-6.716,15-15v-75.196
			C174.749,359.38,168.033,352.664,159.749,352.664z"/>
	</g>
</g>
<g>
</g>
<g>
</g>
<g>
</g>
<g>
</g>
<g>
</g>
<g>
</g>
<g>
</g>
<g>
</g>
<g>
</g>
<g>
</g>
<g>
</g>
<g>
</g>
<g>
</g>
<g>
</g>
<g>
</g>
</svg>
