<?xml version="1.0" encoding="iso-8859-1"?>
<!-- Generator: Adobe Illustrator 19.0.0, SVG Export Plug-In . SVG Version: 6.00 Build 0)  -->
<svg version="1.1" id="Capa_1" xmlns="http://www.w3.org/2000/svg" xmlns:xlink="http://www.w3.org/1999/xlink" x="0px" y="0px"
	 viewBox="0 0 512 512" style="enable-background:new 0 0 512 512;" xml:space="preserve">
<g>
	<g>
		<path d="M467.692,34.462H44.308C19.876,34.462,0,54.338,0,78.769v275.692c0,24.431,19.876,44.308,44.308,44.308h145.231
			l54.646,72.862c2.789,3.719,7.167,5.908,11.815,5.908s9.026-2.189,11.815-5.908l54.646-72.862h145.231
			c24.431,0,44.308-19.876,44.308-44.308V78.769C512,54.338,492.124,34.462,467.692,34.462z M360.665,305.097
			c-2.842,3.256-6.919,5.057-11.126,5.057c-1.191,0-2.394-0.144-3.582-0.441l-46.421-11.605
			c-14.869,7.898-31.493,12.046-48.459,12.046c-57.006,0-103.385-46.378-103.385-103.385s46.378-103.385,103.385-103.385
			s103.385,46.378,103.385,103.385c0,14.131-2.772,27.734-8.249,40.533l17.04,42.597
			C365.311,295.049,364.313,300.918,360.665,305.097z"/>
	</g>
</g>
<g>
	<g>
		<path d="M316.412,252.339c-1.578-3.948-1.379-8.385,0.547-12.176c5.284-10.4,7.964-21.636,7.964-33.394
			c0-40.719-33.127-73.846-73.846-73.846c-40.719,0-73.846,33.127-73.846,73.846s33.127,73.846,73.846,73.846
			c13.656,0,26.991-3.755,38.565-10.859c3.382-2.077,7.458-2.705,11.308-1.742l24.147,6.037L316.412,252.339z"/>
	</g>
</g>
<g>
</g>
<g>
</g>
<g>
</g>
<g>
</g>
<g>
</g>
<g>
</g>
<g>
</g>
<g>
</g>
<g>
</g>
<g>
</g>
<g>
</g>
<g>
</g>
<g>
</g>
<g>
</g>
<g>
</g>
</svg>
