<?xml version="1.0" encoding="iso-8859-1"?>
<!-- Generator: Adobe Illustrator 19.0.0, SVG Export Plug-In . SVG Version: 6.00 Build 0)  -->
<svg version="1.1" id="Capa_1" xmlns="http://www.w3.org/2000/svg" xmlns:xlink="http://www.w3.org/1999/xlink" x="0px" y="0px"
	 viewBox="0 0 512 512" style="enable-background:new 0 0 512 512;" xml:space="preserve">
<g>
	<g>
		<path d="M467.692,34.462H44.308C19.876,34.462,0,54.338,0,78.769v275.692c0,24.431,19.876,44.308,44.308,44.308h145.231
			l54.646,72.862c2.789,3.719,7.167,5.908,11.815,5.908s9.026-2.189,11.815-5.908l54.646-72.862h145.231
			c24.431,0,44.308-19.876,44.308-44.308V78.769C512,54.338,492.124,34.462,467.692,34.462z M482.462,354.462
			c0,8.144-6.625,14.769-14.769,14.769H315.077c-4.648,0-9.026,2.189-11.815,5.908L256,438.154l-47.262-63.015
			c-2.789-3.719-7.167-5.908-11.815-5.908H44.308c-8.144,0-14.769-6.625-14.769-14.769V78.769C29.538,70.625,36.164,64,44.308,64
			h423.385c8.144,0,14.769,6.625,14.769,14.769V354.462z"/>
	</g>
</g>
<g>
	<g>
		<path d="M363.252,289.898l-17.04-42.596c5.477-12.799,8.249-26.401,8.249-40.533c0-57.006-46.378-103.385-103.385-103.385
			s-103.385,46.378-103.385,103.385s46.378,103.385,103.385,103.385c16.966,0,33.59-4.148,48.459-12.046l46.421,11.605
			c1.188,0.297,2.39,0.441,3.582,0.441c4.207,0,8.286-1.801,11.127-5.057C364.314,300.918,365.312,295.049,363.252,289.898z
			 M300.951,268.014c-3.85-0.964-7.926-0.336-11.308,1.742c-11.574,7.104-24.91,10.859-38.565,10.859
			c-40.719,0-73.846-33.127-73.846-73.846s33.127-73.846,73.846-73.846s73.846,33.127,73.846,73.846
			c0,11.758-2.679,22.995-7.964,33.394c-1.927,3.791-2.125,8.227-0.546,12.176l8.685,21.712L300.951,268.014z"/>
	</g>
</g>
<g>
</g>
<g>
</g>
<g>
</g>
<g>
</g>
<g>
</g>
<g>
</g>
<g>
</g>
<g>
</g>
<g>
</g>
<g>
</g>
<g>
</g>
<g>
</g>
<g>
</g>
<g>
</g>
<g>
</g>
</svg>
