<?xml version="1.0" encoding="iso-8859-1"?>
<!-- Generator: Adobe Illustrator 19.0.0, SVG Export Plug-In . SVG Version: 6.00 Build 0)  -->
<svg version="1.1" id="Capa_1" xmlns="http://www.w3.org/2000/svg" xmlns:xlink="http://www.w3.org/1999/xlink" x="0px" y="0px"
	 viewBox="0 0 512 512" style="enable-background:new 0 0 512 512;" xml:space="preserve">
<path style="fill:#303C42;" d="M447.998,437.333V10.667C447.998,4.771,443.227,0,437.331,0H106.664
	C83.144,0,63.998,19.135,63.998,42.667v426.667c0,23.531,19.146,42.667,42.667,42.667h330.667c3.938,0,7.542-2.167,9.396-5.635
	c1.875-3.469,1.667-7.677-0.521-10.948c-10.542-15.813-10.563-36.229-0.063-52.063C447.31,441.646,447.998,439.563,447.998,437.333z
	"/>
<path style="fill:#FAFAFA;" d="M420.373,490.667H106.664c-11.771,0-21.333-9.573-21.333-21.333S94.894,448,106.664,448h313.708
	C415.789,461.854,415.789,476.813,420.373,490.667z"/>
<path style="opacity:0.1;enable-background:new    ;" d="M95.998,480c0-11.76,9.563-21.333,21.333-21.333h300.456
	c0.573-3.602,1.428-7.169,2.586-10.667H106.664c-11.771,0-21.333,9.573-21.333,21.333c0,8.645,5.216,16.031,12.628,19.379
	C96.749,486.038,95.998,483.121,95.998,480z"/>
<path style="fill:#FF8F00;" d="M426.664,426.667h-320c-7.771,0-15.063,2.083-21.333,5.729V42.667
	c0-11.76,9.563-21.333,21.333-21.333h320V426.667z"/>
<path style="fill:#303C42;" d="M170.664,245.115v64.219c0,17.646,14.354,32,32,32h106.667c17.646,0,32-14.354,32-32v-64.219
	c13.292-10.021,21.333-25.771,21.333-42.448c0-32.642-30.615-58.118-63.12-51.938C289.883,137.025,274.002,128,255.998,128
	c-18.005,0-33.888,9.026-43.549,22.732c-32.549-6.19-63.126,19.29-63.117,51.935C149.331,219.344,157.373,235.094,170.664,245.115z"
	/>
<g>
	<path style="fill:#FAFAFA;" d="M309.331,320H202.664c-5.885,0-10.667-4.781-10.667-10.667v-10.667h128v10.667
		C319.998,315.219,315.217,320,309.331,320z"/>
	<path style="fill:#FAFAFA;" d="M203.726,170.845c-0.68,3.395-1.061,6.897-1.061,10.488c0,5.896,4.771,10.667,10.667,10.667
		c5.896,0,10.667-4.771,10.667-10.667c0-17.646,14.354-32,32-32c17.646,0,32,14.354,32,32c0,5.896,4.771,10.667,10.667,10.667
		s10.667-4.771,10.667-10.667c0-3.59-0.382-7.091-1.061-10.484c18.083-0.893,33.07,13.839,33.061,31.818
		c0,11.396-5.99,21.688-16.031,27.531c-3.281,1.917-5.302,5.427-5.302,9.219v37.917h-128v-37.917c0-3.792-2.021-7.302-5.302-9.219
		c-10.042-5.844-16.031-16.135-16.031-27.531C170.664,184.685,185.627,169.943,203.726,170.845z"/>
</g>
<linearGradient id="SVGID_1_" gradientUnits="userSpaceOnUse" x1="-34.2683" y1="634.7134" x2="-26.3713" y2="626.8163" gradientTransform="matrix(21.3333 0 0 -21.3333 996.3333 13791.667)">
	<stop  offset="0" style="stop-color:#000000;stop-opacity:0.1"/>
	<stop  offset="1" style="stop-color:#000000;stop-opacity:0"/>
</linearGradient>
<path style="fill:url(#SVGID_1_);" d="M354.164,174.358l-0.197,0.173c5.319,8.171,8.697,17.701,8.697,28.135
	c0,16.677-8.042,32.427-21.333,42.448v64.219c0,17.646-14.354,32-32,32H202.664c-7.703,0-14.682-2.848-20.211-7.397l92.729,92.73
	h151.482V246.858L354.164,174.358z"/>
<linearGradient id="SVGID_2_" gradientUnits="userSpaceOnUse" x1="-45.9914" y1="640.0204" x2="-22.7594" y2="629.1874" gradientTransform="matrix(21.3333 0 0 -21.3333 996.3333 13791.667)">
	<stop  offset="0" style="stop-color:#FFFFFF;stop-opacity:0.2"/>
	<stop  offset="1" style="stop-color:#FFFFFF;stop-opacity:0"/>
</linearGradient>
<path style="fill:url(#SVGID_2_);" d="M447.998,437.333V10.667C447.998,4.771,443.227,0,437.331,0H106.664
	C83.144,0,63.998,19.135,63.998,42.667v426.667c0,23.531,19.146,42.667,42.667,42.667h330.667c3.938,0,7.542-2.167,9.396-5.635
	c1.875-3.469,1.667-7.677-0.521-10.948c-10.542-15.813-10.563-36.229-0.063-52.063C447.31,441.646,447.998,439.563,447.998,437.333z
	"/>
<g>
</g>
<g>
</g>
<g>
</g>
<g>
</g>
<g>
</g>
<g>
</g>
<g>
</g>
<g>
</g>
<g>
</g>
<g>
</g>
<g>
</g>
<g>
</g>
<g>
</g>
<g>
</g>
<g>
</g>
</svg>
