<?xml version="1.0" encoding="iso-8859-1"?>
<!-- Generator: Adobe Illustrator 19.0.0, SVG Export Plug-In . SVG Version: 6.00 Build 0)  -->
<svg version="1.1" id="Capa_1" xmlns="http://www.w3.org/2000/svg" xmlns:xlink="http://www.w3.org/1999/xlink" x="0px" y="0px"
	 viewBox="0 0 512 512" style="enable-background:new 0 0 512 512;" xml:space="preserve">
<path style="fill:#FFE773;" d="M473.038,72.737v366.537c0,40.103-32.633,72.727-72.737,72.727H54.292
	c-8.451,0-15.33-6.869-15.33-15.33V15.33C38.962,6.879,45.841,0,54.292,0h346.01C440.405,0,473.038,32.623,473.038,72.737z"/>
<path style="fill:#FFD000;" d="M473.038,72.737v366.537c0,40.103-32.633,72.727-72.737,72.727H283.196V0h117.106
	C440.405,0,473.038,32.623,473.038,72.737z"/>
<path style="fill:#FF9900;" d="M119.298,0v512H54.292c-8.451,0-15.33-6.869-15.33-15.33V15.33C38.962,6.879,45.841,0,54.292,0
	H119.298z"/>
<path style="fill:#DA4D04;" d="M364.174,270.379v63.584c0,8.301-6.719,15.02-15.02,15.02H217.229c-8.301,0-15.02-6.719-15.02-15.02
	v-63.584c0-8.291,6.719-15.02,15.02-15.02h131.925C357.455,255.359,364.174,262.088,364.174,270.379z"/>
<path style="fill:#AF4200;" d="M364.174,270.379v63.584c0,8.301-6.719,15.02-15.02,15.02h-65.958v-93.624h65.958
	C357.455,255.359,364.174,262.088,364.174,270.379z"/>
<path style="fill:#FF9900;" d="M393.613,240.94c0,24.513-19.947,44.459-44.459,44.459H217.229c-27.637,0-50.117-22.48-50.117-50.117
	s22.48-50.117,50.117-50.117c4.576,0,9.082,0.631,13.408,1.822c8.541-20.928,28.788-35.898,52.56-36.699
	c0.671-0.02,1.342-0.03,2.013-0.03c28.207,0,51.989,19.886,57.657,46.672c2.063-0.29,4.166-0.441,6.288-0.441
	C373.666,196.491,393.613,216.427,393.613,240.94z"/>
<path style="fill:#FF7500;" d="M393.613,240.94c0,24.513-19.947,44.459-44.459,44.459h-65.958V150.29
	c0.671-0.02,1.342-0.03,2.013-0.03c28.207,0,51.989,19.886,57.657,46.672c2.063-0.29,4.166-0.441,6.288-0.441
	C373.666,196.491,393.613,216.427,393.613,240.94z"/>
<g>
</g>
<g>
</g>
<g>
</g>
<g>
</g>
<g>
</g>
<g>
</g>
<g>
</g>
<g>
</g>
<g>
</g>
<g>
</g>
<g>
</g>
<g>
</g>
<g>
</g>
<g>
</g>
<g>
</g>
</svg>
