<svg height="512pt" viewBox="-18 0 512 512.001" width="512pt" xmlns="http://www.w3.org/2000/svg"><path d="m261.039062 512h-46.660156c-118.207031 0-214.378906-96.886719-214.378906-215.976562 0-67.519532 19.417969-132.332032 56.152344-187.433594l20.203125-30.308594c3.667969-5.5 10.503906-7.953125 16.828125-6.035156 6.328125 1.914062 10.65625 7.746094 10.65625 14.359375v59.019531c0 14.125 2.597656 27.855469 7.5625 40.640625 2.886718-49.039063 23.460937-94.433594 58.660156-128.894531 37.789062-36.996094 88.25-57.371094 142.078125-57.371094 5.535156 0 10.617187 3.046875 13.230469 7.921875 2.609375 4.878906 2.324218 10.796875-.746094 15.402344l-25.949219 38.921875c-22.148437 33.230468-13.515625 75.179687 20.082031 97.578125 18.675782 12.449219 32.386719 30.53125 39.5625 51.285156 8.734376-28.445313 13.257813-57.976563 13.257813-87.289063 0-6.609374 4.328125-12.441406 10.652344-14.355468 6.324219-1.917969 13.164062.535156 16.832031 6.035156l40.847656 61.273438c23.621094 35.433593 36.105469 76.667968 36.105469 119.25 0 119.089843-96.4375 215.976562-214.976563 215.976562zm-187.203124-375.292969c-28.71875 47.585938-43.832032 102.375-43.832032 159.316407 0 102.546874 82.710938 185.972656 184.375 185.972656h46.660156c101.996094 0 184.972657-83.425782 184.972657-185.972656 0-36.640626-10.742188-72.117188-31.066407-102.605469l-16.523437-24.785157c-4.992187 35.484376-15.839844 70.433594-32.078125 102.910157l-3.929688 7.859375c-3.113281 6.222656-10.09375 9.492187-16.867187 7.890625-6.769531-1.597657-11.554687-7.640625-11.554687-14.601563v-27.652344c0-24.417968-11.917969-46.941406-31.875-60.246093-22.777344-15.183594-38.257813-37.777344-43.597657-63.617188-5.371093-25.980469.023438-52.820312 15.191407-75.570312l8.792968-13.1875c-81.328125 13.429687-141.449218 81.460937-141.449218 165.839843v37.21875c0 6.066407-3.652344 11.539063-9.261719 13.859376-5.601563 2.320312-12.058594 1.039062-16.347657-3.253907-26.832031-26.832031-41.609374-62.507812-41.609374-100.457031zm0 0" fill="#fe9923"/><path d="m317.863281 381.847656c-1.542969-3.109375-3.289062-6.148437-5.183593-9.054687l-61.972657-107.589844c-.03125-.054687-.074219-.105469-.105469-.164063-.164062-.269531-.335937-.535156-.515624-.796874-.105469-.152344-.207032-.308594-.316407-.457032-.171875-.238281-.359375-.464844-.550781-.691406-.132812-.160156-.265625-.324219-.40625-.480469-.167969-.1875-.351562-.363281-.53125-.542969-.175781-.175781-.351562-.355468-.539062-.523437-.15625-.140625-.324219-.273437-.488282-.40625-.222656-.1875-.449218-.375-.6875-.546875-.148437-.109375-.304687-.207031-.460937-.3125-.261719-.179688-.523438-.351562-.796875-.511719-.058594-.03125-.109375-.074219-.167969-.105469-.113281-.0625-.226563-.113281-.34375-.175781-.257813-.136719-.519531-.273437-.789063-.398437-.207031-.097656-.417968-.183594-.632812-.269532-.226562-.09375-.457031-.183593-.691406-.265624-.25-.089844-.5-.167969-.75-.242188-.207032-.0625-.410156-.117188-.617188-.167969-.273437-.070312-.542968-.125-.816406-.179687-.203125-.035156-.40625-.070313-.609375-.101563-.269531-.039062-.539063-.074219-.808594-.097656-.21875-.019531-.441406-.035156-.664062-.046875-.246094-.011719-.492188-.015625-.742188-.015625s-.5.007813-.75.019531c-.21875.011719-.4375.027344-.652343.050782-.273438.023437-.546876.058593-.820313.101562-.199219.03125-.398437.0625-.597656.101562-.277344.054688-.550781.117188-.824219.183594-.203125.054688-.40625.109375-.605469.167969-.253906.078125-.507812.160156-.761719.25-.230468.082031-.453124.171875-.679687.265625-.214844.085938-.429687.175781-.640625.277344-.265625.121094-.519531.257812-.773438.394531-.117187.0625-.238281.113281-.355468.179687-.058594.035157-.113282.074219-.171875.109376-.265625.160156-.523438.332031-.78125.507812-.15625.105469-.316407.210938-.46875.320312-.234375.175782-.460938.359376-.683594.546876-.164063.136718-.328125.269531-.484375.410156-.1875.167968-.363281.351562-.542969.53125-.179687.175781-.355469.351562-.523437.535156-.140625.160156-.277344.332031-.414063.496094-.183593.222656-.367187.445312-.535156.675781-.113281.15625-.21875.316406-.324219.476563-.171875.257812-.34375.515624-.5.785156-.035156.058594-.074218.109375-.109375.167968l-59.839843 104.832032c-.644532.664062-1.238282 1.386718-1.769532 2.183594-1.804687 2.726562-2.972656 5.324218-3.910156 7.410156-.320312.714844-.640625 1.433594-1.003906 2.164062-5.984375 12.0625-9.28125 26.523438-9.28125 40.714844 0 23.894531 9.175781 46.335938 25.835937 63.183594 16.742188 16.929687 39.113281 26.253906 63 26.253906 49.207031 0 89.238281-40.121094 89.238281-89.4375 0-14.453125-3.226562-28.910156-9.082031-40.714844zm-80.15625 100.148438c-32.441406 0-58.832031-26.664063-58.832031-59.433594 0-9.417969 2.203125-19.28125 6.039062-27.125l52.851563-92.585938 53.339844 92.601563c3.707031 7.589844 5.835937 17.445313 5.835937 27.109375 0 32.773438-26.570312 59.433594-59.234375 59.433594zm0 0" fill="#fedb41"/></svg>