<svg id="Layer_1" enable-background="new 0 0 512 512" height="512" viewBox="0 0 512 512" width="512" xmlns="http://www.w3.org/2000/svg"><g><path d="m277.948 141c-12.121 0-21.948 9.827-21.948 21.948v130.667c0 35.4 17.036 68.636 45.776 89.304l37.606 27.044 77.848-82.575-17.029-17.708-14.24-93.646c-1.081-7.109-3.01-14.063-5.746-20.713l-64.209-156.064c-7.381-17.007-20.47-29.257-37.006-29.257-16.214 0-23 10.75-23 25.375z" fill="#cc9081"/><path d="m234.051 141c12.122 0 21.948 9.827 21.948 21.948v130.667c0 35.4-17.036 68.636-45.776 89.304l-37.606 27.044-77.847-82.574 17.029-17.708 14.24-93.646c1.081-7.109 3.01-14.063 5.746-20.713l64.208-156.065c7.382-17.007 20.47-29.257 37.007-29.257 16.214 0 23 10.75 23 25.375z" fill="#ffdcd5"/><path d="m445.333 355.708-77.848 82.575-28.103-28.318 77.847-82.576z" fill="#fff"/><path d="m491 401.726-95.412 100.274-45.668-46.018 95.413-100.274z" fill="#99ebfa"/><path d="m66.667 355.708 77.848 82.575 28.103-28.318-77.848-82.576z" fill="#fff"/><path d="m21 401.726 95.412 100.274 45.668-46.018-95.413-100.274z" fill="#99ebfa"/><g><path d="m498.098 394.682-88.488-89.642-3.47-22.82c-.359-2.38-1.57-4.54-3.399-6.1-2.19-1.87-5.131-2.72-7.99-2.28-2.641.4-4.97 1.81-6.55 3.96s-2.23 4.79-1.83 7.43l3.939 25.96c.311 2.02 1.26 3.95 2.681 5.42l10.429 10.85-65.31 69.27-30.5-21.93c-26.05-18.74-41.61-49.09-41.61-81.18v-.004-130.666c.01-6.58 5.37-11.939 11.949-11.95 5.694 0 10.624 4.056 11.724 9.642l20.516 104.288c.938 4.768 5.119 8.072 9.801 8.072.64 0 1.289-.062 1.941-.19 5.419-1.066 8.947-6.323 7.881-11.742l-20.516-104.288c-2.382-12.112-11.5-21.53-22.979-24.661l-20.307-97.711c.12-4.71 1.26-8.66 3.12-10.85.939-1.1 1.93-1.84 3.34-2.45 1.74-.73 3.94-1.11 6.53-1.11 5.689.03 10.63 1.92 15.56 5.95 4.84 4 9.07 9.93 12.221 17.16l64.189 156.02c0 .02.021.03.04.03-.02 0-.04-.02-.04-.02 1.55 3.77 5.18 6.2 9.26 6.2 1.301 0 2.58-.25 3.79-.75 5.101-2.1 7.55-7.96 5.45-13.06l-64.22-156.08-.07-.17c-4.47-10.28-10.48-18.59-17.861-24.73-3.96-3.3-8.319-5.88-12.96-7.68-4.92-1.9-10.05-2.87-15.25-2.87h-.13c-5.27 0-10.09.91-14.319 2.7-3.179 1.324-6.114 3.278-8.635 5.683-5.644-5.407-13.488-8.383-23.025-8.383-19.33 0-36.593 13.188-46.18 35.276-.025.059-.05.118-.075.177l-64.208 156.064c-3.037 7.379-5.185 15.123-6.385 23.015l-13.763 90.507-88.488 89.643c-3.812 3.841-3.876 10.017-.146 13.938l95.412 100.274c1.863 1.957 4.438 3.077 7.14 3.105.035.001.07.001.105.001 2.664 0 5.22-1.063 7.098-2.956l45.667-46.018c3.812-3.841 3.876-10.017.146-13.938l-10.497-11.031 20.305-20.461 36.929-26.557c17.727-12.749 31.398-29.977 39.92-49.524 1.006 2.311 2.078 4.592 3.228 6.834 4.29 8.38 9.58 16.25 15.7 23.38 6.199 7.24 13.279 13.74 21.029 19.31l36.927 26.556 20.305 20.461-10.497 11.031c-3.73 3.921-3.666 10.097.146 13.938l45.668 46.018c1.878 1.894 4.434 2.956 7.098 2.956.035 0 .07 0 .105-.001 2.701-.028 5.276-1.148 7.139-3.105l95.412-100.274c3.735-3.921 3.67-10.097-.142-13.937zm-231.968-261.422c-3.793 1.512-7.215 3.722-10.142 6.497-2.912-2.756-6.333-4.978-10.116-6.49l10.129-48.744zm-149.567 354.391-81.62-85.779 31.54-31.782 81.654 85.746zm-35.953-131.797 13.975-14.083 64.121 68.015-13.671 13.777zm123.776 18.948-30.498 21.933-65.31-69.277 10.429-10.845c1.432-1.489 2.368-3.386 2.678-5.428l14.24-93.646c.96-6.314 2.679-12.508 5.108-18.412l64.17-155.973c3.067-7.032 11.842-23.154 27.797-23.154 4.129 0 12.625 0 12.988 14.405l-20.305 97.716c-11.479 3.131-20.597 12.549-22.979 24.661l-20.516 104.288c-1.066 5.419 2.463 10.676 7.882 11.742.652.128 1.301.19 1.941.19 4.682 0 8.863-3.305 9.801-8.072l20.516-104.288c1.099-5.587 6.029-9.642 11.724-9.642 6.588 0 11.948 5.36 11.948 11.949v.001 130.666c0 32.096-15.557 62.446-41.614 81.186zm148.907 34.984 64.121-68.015 13.976 14.083-64.426 67.708zm42.144 77.865-31.574-31.815 81.654-85.745 31.54 31.781z"/><circle cx="389.485" cy="239.24" r="10"/></g></g></svg>