<svg id="Capa_1" enable-background="new 0 0 512.011 512.011" height="512" viewBox="0 0 512.011 512.011" width="512" xmlns="http://www.w3.org/2000/svg"><g><path d="m447.256 304.919-85.618 60.718c-2.641-19.516-19.41-34.607-39.638-34.607h-10.26c-41.291 0-81.112-10.302-128.201-25.771-8.546-2.806-17.476-4.229-26.54-4.229-25.276 0-48.625 10.871-64.819 30h-82.18c-5.523 0-10 4.477-10 10v90c0 5.523 4.477 10 10 10 36.662 0 72.959 10.31 111.388 21.226 41.148 11.688 83.698 23.774 129.702 23.774 37.2 0 69.865-3.835 108.372-22.555 37.484-18.222 80.412-50.203 137.524-95.896 17.268-13.811 20.063-38.963 6.24-56.229-13.712-17.131-38.759-19.984-55.97-6.431zm37.237 47.043c-119.925 95.945-157.007 114.068-233.403 114.068-43.218 0-84.406-11.699-124.237-23.013-36.43-10.347-71.013-20.17-106.853-21.762v-70.225h76.99c3.145 0 6.106-1.479 7.995-3.993 12.418-16.528 31.377-26.007 52.015-26.007 6.941 0 13.771 1.087 20.299 3.23 48.913 16.068 90.494 26.77 134.441 26.77h10.26c11.028 0 20 8.972 20 20 0 10.866-8.739 20-20 20h-121.5c-5.523 0-10 4.477-10 10s4.477 10 10 10h121.5c11.994 0 23.454-5.493 31.017-14.76 110.72-78.528 106.067-75.203 106.489-75.54 8.609-6.886 21.218-5.487 28.108 3.12 6.91 8.631 5.515 21.205-3.121 28.112z"/><circle cx="327" cy="166.03" r="10"/><path d="m311 88.981c4.54 3.404 7.25 8.825 7.25 14.5s-2.71 11.095-7.25 14.5c-4.418 3.313-5.313 9.582-2 14 3.297 4.396 9.561 5.329 14 2 9.549-7.162 15.25-18.563 15.25-30.5s-5.701-23.339-15.25-30.5c-4.54-3.405-7.25-8.825-7.25-14.5s2.71-11.095 7.25-14.5c4.418-3.314 5.314-9.582 2.001-14-3.314-4.418-9.581-5.314-14-2.001-9.549 7.162-15.25 18.563-15.25 30.5-.001 11.937 5.7 23.339 15.249 30.501z"/><path d="m371 88.981c4.54 3.404 7.25 8.825 7.25 14.5s-2.71 11.095-7.25 14.5c-4.418 3.313-5.313 9.582-2 14 3.297 4.396 9.561 5.329 14 2 9.549-7.162 15.25-18.563 15.25-30.5s-5.701-23.339-15.25-30.5c-4.54-3.405-7.25-8.825-7.25-14.5s2.71-11.095 7.25-14.5c4.418-3.314 5.314-9.582 2.001-14s-9.581-5.314-14-2.001c-9.549 7.162-15.25 18.563-15.25 30.5-.001 11.937 5.7 23.339 15.249 30.501z"/><path d="m251 88.981c4.54 3.404 7.25 8.825 7.25 14.5s-2.71 11.095-7.25 14.5c-4.418 3.313-5.313 9.582-2 14 3.297 4.396 9.561 5.329 14 2 9.549-7.162 15.25-18.563 15.25-30.5s-5.701-23.339-15.25-30.5c-4.54-3.405-7.25-8.825-7.25-14.5s2.71-11.095 7.25-14.5c4.418-3.314 5.314-9.582 2.001-14-3.314-4.418-9.582-5.314-14-2.001-9.549 7.162-15.25 18.563-15.25 30.5-.001 11.937 5.7 23.339 15.249 30.501z"/><path d="m245.97 266.653c6.803 4.033 11.03 11.447 11.03 19.377 0 5.523 4.477 10 10 10h120c2.652 0 5.196-1.068 7.071-2.944 1.875-1.875 2.929-4.434 2.929-7.086 0-7.902 4.226-15.315 11.036-19.352 30.66-18.204 48.964-50.211 48.964-85.618v-15c0-5.523-4.477-10-10-10h-75c-5.523 0-10 4.477-10 10s4.477 10 10 10h65v5c0 28.278-14.645 53.856-39.168 68.417-9.926 5.883-16.947 15.579-19.628 26.583h-102.404c-2.679-10.994-9.7-20.694-19.625-26.579-24.53-14.565-39.175-40.143-39.175-68.421v-5h65c5.523 0 10-4.477 10-10s-4.477-10-10-10h-75c-5.523 0-10 4.477-10 10v15c0 35.407 18.304 67.414 48.97 85.623z"/></g></svg>