<?xml version="1.0"?>
<svg xmlns="http://www.w3.org/2000/svg" xmlns:xlink="http://www.w3.org/1999/xlink" version="1.1" id="Capa_1" x="0px" y="0px" viewBox="0 0 512 512" style="enable-background:new 0 0 512 512;" xml:space="preserve" width="512px" height="512px" class=""><g><g>
	<g>
		<path d="M443.733,0H68.267C30.564,0,0,30.564,0,68.267v375.467C0,481.436,30.564,512,68.267,512h375.467    C481.436,512,512,481.436,512,443.733V68.267C512,30.564,481.436,0,443.733,0z M169.813,434.603    c-34.676,35.211-91.33,35.645-126.541,0.969s-35.645-91.33-0.969-126.541c0.323-0.328,0.65-0.654,0.978-0.978l115.575-115.558    c12.243-12.263,27.792-20.696,44.749-24.269c9.203-2.035,18.314,3.776,20.349,12.98c2.035,9.203-3.776,18.314-12.98,20.349    c-0.112,0.025-0.225,0.049-0.337,0.071c-10.478,2.206-20.086,7.42-27.648,15.002L67.413,332.203    c-21.608,21.613-21.604,56.651,0.009,78.259c21.613,21.608,56.651,21.605,78.259-0.008l115.575-115.558    c14.13-14.168,19.536-34.847,14.148-54.118c-2.559-9.072,2.721-18.501,11.793-21.06c9.072-2.559,18.501,2.721,21.06,11.793    c8.739,31.162-0.002,64.615-22.869,87.518L169.813,434.603z M469.699,219.539c-0.324,0.329-0.651,0.656-0.98,0.98h0    L353.143,336.094c-12.238,12.261-27.781,20.694-44.732,24.269c-1.169,0.237-2.358,0.357-3.55,0.358    c-9.426-0.015-17.054-7.668-17.039-17.094c0.013-8.043,5.64-14.986,13.507-16.664c10.486-2.212,20.103-7.424,27.682-15.002    l115.575-115.593c21.608-21.613,21.604-56.651-0.009-78.259s-56.651-21.604-78.259,0.009L250.743,233.694    c-14.13,14.168-19.536,34.847-14.148,54.118c2.559,9.072-2.721,18.501-11.793,21.06c-9.072,2.559-18.501-2.721-21.06-11.793    c-8.739-31.162,0.002-64.615,22.869-87.518L342.187,93.969c34.675-35.211,91.329-35.646,126.541-0.971    C503.939,127.673,504.374,184.327,469.699,219.539z" data-original="#000000" class="active-path" data-old_color="#000000" fill="#4949E7"/>
	</g>
</g></g> </svg>
