<svg height="512" viewBox="0 0 512 512" width="512" xmlns="http://www.w3.org/2000/svg"><g id="Fill_out_line" data-name="Fill out line"><path d="m448 24a40 40 0 1 0 40 40 40.04022 40.04022 0 0 0 -40-40zm0 56a16 16 0 1 1 16-16 15.99555 15.99555 0 0 1 -16 16z" fill="#c4d4e0"/><path d="m424 88a33.9411 33.9411 0 0 1 0 48l-120 120-48-48 120-120a33.9411 33.9411 0 0 1 48 0z" fill="#ad7d4d"/><path d="m448 16a48.05088 48.05088 0 0 0 -48 48 48.56972 48.56972 0 0 0 .37988 6.06h-.37988a41.67841 41.67841 0 0 0 -29.65991 12.28l-120 120a8.01 8.01 0 0 0 -.07007 11.24l-173.24002 80.84a105.66707 105.66707 0 0 0 -31.6799 168.86c.54.58 1.09985 1.15 1.65991 1.71s1.13013 1.12 1.71 1.66a105.65761 105.65761 0 0 0 168.8501-31.68l80.84985-173.24a8.00424 8.00424 0 0 0 11.24-.07l120-120a41.67786 41.67786 0 0 0 12.28-29.66v-.38a48.56991 48.56991 0 0 0 6.06004.38 48 48 0 0 0 0-96zm-407.1499 396.16a96.31508 96.31508 0 0 0 -2.8501 10.37 89.77226 89.77226 0 0 1 45.79-113.61l157.98-73.72-133.42991 92.38c-31.51001 21.81-57.37009 54.22-67.48999 84.58zm15.1799 5.06c8.93994-26.83 33.05005-56.85 61.40991-76.49l138.15015-95.64-201.58006 201.58c-2.58007-7.36-1.92992-17.61 2.02-29.45zm9.3 40.77 201.57991-201.58-95.63991 138.15c-19.64014 28.36-49.66016 52.47-76.49 61.41-11.84006 3.95-22.09006 4.6-29.44992 2.02zm137.75-29.78a89.77241 89.77241 0 0 1 -113.61 45.79 97.02073 97.02073 0 0 0 10.37012-2.85c30.35986-10.12 62.76977-35.98 84.57983-67.49l92.38013-133.43zm222.85994-316.21a25.76376 25.76376 0 0 1 -7.59985 18.34l-114.34009 114.35-36.68994-36.69 114.34985-114.34a25.76431 25.76431 0 0 1 18.34009-7.6 25.24108 25.24108 0 0 1 5.71.64 25.93419 25.93419 0 0 1 19.59009 19.59 25.24754 25.24754 0 0 1 .63985 5.71zm22.06006-16a31.99738 31.99738 0 0 1 -9.89014-1.56v-.01a42.2651 42.2651 0 0 0 -20.53979-20.54h-.01a32.00383 32.00383 0 1 1 30.43993 22.11z"/><path d="m448 40a24 24 0 1 0 24 24 24.03185 24.03185 0 0 0 -24-24zm0 32a8 8 0 1 1 8-8 8.0107 8.0107 0 0 1 -8 8z"/><path d="m48.72 466.65c-.63989-.55-1.22-1.09-1.75-1.62l.04-.04c.56007.56 1.13014 1.12 1.71 1.66z"/><path d="m47.01 464.99-.04.04c-.52-.52-1.07007-1.11-1.61987-1.75.54001.58 1.09987 1.15 1.65987 1.71z"/></g></svg>