<svg height="512pt" viewBox="-21 0 512 512" width="512pt" xmlns="http://www.w3.org/2000/svg"><path d="m458.667969 0h-448c-5.890625 0-10.667969 4.777344-10.667969 10.667969v490.664062c0 5.890625 4.777344 10.667969 10.667969 10.667969h448c5.886719 0 10.664062-4.777344 10.664062-10.667969v-490.664062c0-5.890625-4.777343-10.667969-10.664062-10.667969zm0 0" fill="#eceff1"/><path d="m416 42.667969h-362.667969c-5.886719 0-10.664062 4.777343-10.664062 10.664062v320c0 5.890625 4.777343 10.667969 10.664062 10.667969h362.667969c5.886719 0 10.667969-4.777344 10.667969-10.667969v-320c0-5.886719-4.78125-10.664062-10.667969-10.664062zm0 0" fill="#2196f3"/><path d="m340.84375 252.777344c-21.953125-69.203125-76.394531-123.625-145.601562-145.597656-2.773438-.898438-5.738282-.578126-8.320313.789062-2.539063 1.363281-4.414063 3.710938-5.183594 6.507812l-53.332031 192c-1.046875 3.710938 0 7.679688 2.730469 10.386719 2.003906 2.046875 4.734375 3.136719 7.53125 3.136719.957031 0 1.917969-.128906 2.855469-.382812l192-53.335938c2.796874-.789062 5.144531-2.664062 6.53125-5.203125 1.363281-2.539063 1.664062-5.546875.789062-8.300781zm0 0" fill="#ffc107"/><path d="m266.667969 213.332031c0 17.675781-14.328125 32-32 32-17.675781 0-32-14.324219-32-32 0-17.671875 14.324219-32 32-32 17.671875 0 32 14.328125 32 32zm0 0" fill="#f44336"/><path d="m458.667969 512h-448c-5.890625 0-10.667969-4.777344-10.667969-10.667969v-490.664062c0-5.890625 4.777344-10.667969 10.667969-10.667969h448c5.886719 0 10.664062 4.777344 10.664062 10.667969v490.664062c0 5.890625-4.777343 10.667969-10.664062 10.667969zm-437.335938-21.332031h426.667969v-469.335938h-426.667969zm0 0"/><path d="m416 384h-362.667969c-5.886719 0-10.664062-4.777344-10.664062-10.667969v-320c0-5.886719 4.777343-10.664062 10.664062-10.664062h362.667969c5.886719 0 10.667969 4.777343 10.667969 10.664062v320c0 5.890625-4.78125 10.667969-10.667969 10.667969zm-352-21.332031h341.332031v-298.667969h-341.332031zm0 0"/><path d="m138.667969 320c-2.796875 0-5.527344-1.089844-7.554688-3.113281-2.730469-2.710938-3.773437-6.679688-2.730469-10.390625l53.335938-192c.789062-2.816406 2.664062-5.164063 5.203125-6.550782 2.5625-1.363281 5.546875-1.664062 8.320313-.789062 69.207031 21.972656 123.648437 76.417969 145.601562 145.601562.875 2.75.574219 5.757813-.789062 8.320313-1.367188 2.539063-3.734376 4.414063-6.53125 5.203125l-192 53.335938c-.9375.253906-1.898438.382812-2.855469.382812zm60.5625-188.863281-45.226563 162.859375 162.859375-45.25c-20.523437-54.144532-63.464843-97.066406-117.632812-117.609375zm0 0"/><path d="m234.667969 245.332031c-17.644531 0-32-14.355469-32-32 0-17.640625 14.355469-32 32-32 17.640625 0 32 14.359375 32 32 0 17.644531-14.359375 32-32 32zm0-42.664062c-5.867188 0-10.667969 4.777343-10.667969 10.664062 0 5.890625 4.800781 10.667969 10.667969 10.667969 5.867187 0 10.664062-4.777344 10.664062-10.667969 0-5.886719-4.796875-10.664062-10.664062-10.664062zm0 0"/><path d="m181.332031 256h-21.332031c-5.886719 0-10.667969-4.777344-10.667969-10.667969 0-5.886719 4.78125-10.664062 10.667969-10.664062h21.332031c5.890625 0 10.667969 4.777343 10.667969 10.664062 0 5.890625-4.777344 10.667969-10.667969 10.667969zm0 0"/></svg>