<?xml version="1.0" encoding="UTF-8"?>
<svg width="126px" height="168px" viewBox="0 0 126 168" version="1.1" xmlns="http://www.w3.org/2000/svg" xmlns:xlink="http://www.w3.org/1999/xlink">
    <!-- Generator: Sketch 64 (93537) - https://sketch.com -->
    <title>Logo1</title>
    <desc>Created with Sketch.</desc>
    <g id="Page-1" stroke="none" stroke-width="1" fill="none" fill-rule="evenodd">
        <g id="RJ-Header-Mock" transform="translate(-84.000000, -29.000000)">
            <g id="Logo1" transform="translate(84.000000, 29.000000)">
                <path d="M62.7944,50.2 C97.3674253,50.2 125.3944,92.5218976 125.3944,144.050065 L125.395017,144.036024 C108.758957,158.702348 86.9157575,167.6 62.9944,167.6 C38.8808007,167.6 16.8788955,158.558763 0.193710784,143.681314 L0.1944,143.5 C0.1944,91.9718328 28.2213747,50.2 62.7944,50.2 Z" id="Oval-5" fill="#ECC94B"></path>
                <g id="Hat" transform="translate(7.994400, 0.000000)" fill="#FFFFFF">
                    <polygon id="Rectangle" points="18.3861267 47.1360544 91.0381378 47.1360544 91.0381378 67.6 18.3861267 67.6"></polygon>
                    <ellipse id="Oval-2" cx="23.8988713" cy="27.8217687" rx="23.8988713" ry="23.9129252"></ellipse>
                    <ellipse id="Oval-2" cx="63.9984199" cy="19.6591837" rx="19.6476298" ry="19.6591837"></ellipse>
                    <ellipse id="Oval-2" cx="86.9781038" cy="42.652381" rx="14.8218962" ry="14.8306122"></ellipse>
                    <ellipse id="Oval-2" cx="54.5767494" cy="39.4333333" rx="19.6476298" ry="19.6591837"></ellipse>
                </g>
                <g id="eye-copy" transform="translate(30.994400, 83.000000)">
                    <circle id="Oval-4" fill="#181E24" cx="10.2305618" cy="10.2305618" r="10.2305618"></circle>
                    <circle id="Oval-4" fill="#FFFFFF" cx="10.2305618" cy="6.01797753" r="3.30988764"></circle>
                </g>
                <g id="eye-copy-2" transform="translate(73.994400, 83.000000)">
                    <circle id="Oval-4" fill="#181E24" cx="10.2305618" cy="10.2305618" r="10.2305618"></circle>
                    <circle id="Oval-4" fill="#FFFFFF" cx="10.2305618" cy="6.01797753" r="3.30988764"></circle>
                </g>
                <path d="M62.194137,116.72502 L62.3210777,116.86769 C62.4924088,117.058684 62.6743221,117.255881 62.8941233,117.496887 L63.3080785,117.044309 L63.3701449,116.975924 L63.7849872,116.512796 C70.1096869,109.583991 80.7593419,110.038151 86.4592376,117.533891 L87.2795417,118.613372 C88.1924505,119.812171 89.1153113,121.004166 90.0989834,122.142101 C91.8847143,124.207882 94.0383053,125.760332 96.7310412,126.457309 C104.839827,128.557235 115.531587,117.243753 116.532102,113.94619 L116.825438,115.134442 C117.712384,118.773544 117.969676,120.32803 118.115713,122.339711 L118.143672,122.753948 C118.408495,127.0857 117.664036,131.248715 115.257855,134.971677 C112.0915,139.871504 107.328861,142.370329 101.852114,143.664845 C94.2220054,145.46877 86.6100602,145.01727 79.0870912,143.054616 L78.5260089,142.906548 C72.6112231,141.327023 66.9571728,139.196551 63.0197957,134.081929 L62.8943494,133.917311 L62.8927702,133.91942 C58.8274391,139.315144 52.881186,141.442317 46.7017088,143.054616 C39.1787398,145.01727 31.5667946,145.46877 23.9366863,143.664845 C18.4599391,142.370329 13.6973004,139.871504 10.5309445,134.971677 C8.12476354,131.248715 7.38030468,127.0857 7.64512801,122.753948 L7.6731527,122.338812 C7.83418176,120.121255 8.13051715,118.458875 9.25669771,113.94619 C10.2572132,117.243753 20.9489726,128.557235 29.0577588,126.457309 C31.7504947,125.760332 33.9040857,124.207882 35.6898166,122.142101 C36.9685903,120.662786 38.144593,119.092109 39.3295624,117.533891 C45.0870328,109.962436 55.8947626,109.575535 62.194137,116.72502 Z" id="stache" fill="#181E24"></path>
            </g>
        </g>
    </g>
</svg>