<?xml version="1.0" encoding="UTF-8"?>
<svg width="165px" height="216px" viewBox="0 0 165 216" version="1.1" xmlns="http://www.w3.org/2000/svg" xmlns:xlink="http://www.w3.org/1999/xlink">
    <!-- Generator: Sketch 64 (93537) - https://sketch.com -->
    <title>logo w outline</title>
    <desc>Created with Sketch.</desc>
    <g id="Page-1" stroke="none" stroke-width="1" fill="none" fill-rule="evenodd">
        <g id="RJ-Header-Mock" transform="translate(-810.000000, -70.000000)">
            <g id="logo-w-outline" transform="translate(818.000000, 78.000000)">
                <path d="M27.1648447,79.1114068 C8.3335494,100.007295 -3.99975489,133.455596 -3.99975489,171.457267 C-3.99975489,172.049211 -3.99676238,172.64005 -3.99079943,173.229754 C-3.55402219,173.63896 -3.11145325,174.040793 -2.66586203,174.439192 C17.8991143,192.82612 45.0171765,204 74.7379109,204 C104.877556,204 132.340613,192.508872 153.007342,173.657429 L152.994927,170.77461 C152.751079,133.306334 140.389309,99.9715918 121.625731,79.1127488 L121.625794,70.7108846 C124.983063,69.2042994 127.888434,66.8655089 130.078762,63.9538403 C132.811312,60.3213806 134.433398,55.7998545 134.433398,50.8978293 C134.433398,44.9077128 132.012443,39.4852728 128.100111,35.5599731 C124.182996,31.6298748 118.771237,29.2002013 112.794237,29.2002013 C112.604779,29.2002013 112.41589,29.2026478 112.227601,29.2075103 C112.621394,27.3543761 112.828845,25.4313353 112.828845,23.4596464 C112.828845,15.8783924 109.765084,9.01544785 104.813476,4.0474279 C99.8570864,-0.925390657 93.0095813,-4 85.4467011,-4 C78.8062042,-4 72.7176828,-1.62910489 67.9759922,2.31469622 C65.1930844,4.62932106 62.8751361,7.48653112 61.1823854,10.7244037 C59.0814493,8.5203141 56.6746589,6.61146407 54.0303927,5.0670858 C49.2391155,2.26875011 43.6690081,0.664491095 37.7252502,0.664491095 C28.7652845,0.664491095 20.6529559,4.30725824 14.7810137,10.1986637 C8.91385422,16.0852705 5.28381248,24.217231 5.28381248,33.2002013 C5.28381248,40.8133473 7.89182258,47.8149466 12.2580371,53.356953 C16.0721888,58.19823 21.2296786,61.9235904 27.1643564,63.971888 L27.1648447,79.1114068 Z" id="Path" stroke="#4A90E2" stroke-width="8" fill="#4A90E2" stroke-linejoin="round"></path>
                <g id="Logo1">
                    <path d="M74.9336516,59.9045346 C116.190245,59.9045346 149.635322,110.407992 149.635322,171.897452 L149.635887,171.880849 C129.783808,189.382338 103.718005,200 75.172315,200 C46.3974221,200 20.1424006,189.211148 0.231750559,171.457944 L0.231980907,171.24105 C0.231980907,109.751591 33.6770581,59.9045346 74.9336516,59.9045346 Z" id="Oval-5" fill="#ECC94B"></path>
                    <g id="Hat" transform="translate(9.539857, 0.000000)">
                        <ellipse id="Oval-2" stroke="#4A90E2" stroke-width="3" fill="#FFFFFF" stroke-linejoin="round" cx="28.5189395" cy="33.2002013" rx="28.5189395" ry="28.5357102"></ellipse>
                        <ellipse id="Oval-2" stroke="#4A90E2" stroke-width="3" fill="#FFFFFF" stroke-linejoin="round" cx="76.3704294" cy="23.4596464" rx="23.4458589" ry="23.4596464"></ellipse>
                        <ellipse id="Oval-2" stroke="#4A90E2" stroke-width="3" fill="#FFFFFF" stroke-linejoin="round" cx="103.792487" cy="50.8978293" rx="17.6872269" ry="17.697628"></ellipse>
                        <ellipse id="Oval-2" fill="#FFFFFF" cx="65.127386" cy="49.5968373" rx="25.9847196" ry="26"></ellipse>
                        <polygon id="Rectangle" fill="#FFFFFF" points="21.9404854 56.248275 108.637396 56.248275 108.637396 80.6682578 21.9404854 80.6682578"></polygon>
                        <polygon id="Rectangle" fill="#181E24" points="21.9404854 67.9294281 108.637396 67.9294281 108.637396 71.6682578 21.9404854 71.6682578"></polygon>
                    </g>
                    <g id="eye-copy" transform="translate(36.986158, 99.045346)">
                        <circle id="Oval-4" fill="#181E24" cx="12.2083076" cy="12.2083076" r="12.2083076"></circle>
                        <circle id="Oval-4" fill="#FFFFFF" cx="12.2083076" cy="7.18135743" r="3.94974659"></circle>
                    </g>
                    <g id="eye-copy-2" transform="translate(88.298807, 99.045346)">
                        <circle id="Oval-4" fill="#181E24" cx="12.2083076" cy="12.2083076" r="12.2083076"></circle>
                        <circle id="Oval-4" fill="#FFFFFF" cx="12.2083076" cy="7.18135743" r="3.94974659"></circle>
                    </g>
                    <path d="M74.2173472,139.29 L74.3688279,139.46025 C74.5732802,139.688167 74.7903605,139.923485 75.052653,140.211082 L75.5466331,139.671013 L75.620698,139.589408 L76.1157365,139.03675 C83.6631109,130.768486 96.3715297,131.310443 103.173315,140.25524 L104.152198,141.543403 C105.241588,142.973951 106.342854,144.39638 107.516687,145.754297 C109.64763,148.21943 112.217548,150.071996 115.430837,150.903709 C125.107193,153.409588 137.865855,139.909014 139.059788,135.973973 L139.409831,137.391936 C140.468238,141.73454 140.77527,143.589535 140.949538,145.990109 L140.982902,146.484425 C141.29892,151.65358 140.410545,156.621378 137.539207,161.064053 C133.760739,166.911103 128.0774,169.892994 121.541902,171.437763 C112.436761,173.590418 103.353294,173.051634 94.3760039,170.709566 L93.7064546,170.532874 C86.6482376,168.647998 79.9011608,166.105669 75.2026201,160.002302 L75.0529229,159.80586 L75.0510385,159.808377 C70.199808,166.247189 63.1040406,168.785581 55.7299627,170.709566 C46.7526727,173.051634 37.6692059,173.590418 28.5640648,171.437763 C22.028567,169.892994 16.3452272,166.911103 12.5667596,161.064053 C9.69542188,156.621378 8.80704616,151.65358 9.12306445,146.484425 L9.1565068,145.989036 C9.34866559,143.342786 9.70228777,141.359039 11.0461787,135.973973 C12.2401112,139.909014 24.9987739,153.409588 34.6751298,150.903709 C37.8884185,150.071996 40.4583362,148.21943 42.5892799,145.754297 C44.1152629,143.989004 45.5186074,142.114689 46.932652,140.25524 C53.8031418,131.220091 66.7001941,130.758395 74.2173472,139.29 Z" id="stache" fill="#181E24"></path>
                </g>
            </g>
        </g>
    </g>
</svg>