<?xml version="1.0" encoding="UTF-8"?>
<svg width="165px" height="216px" viewBox="0 0 165 216" version="1.1" xmlns="http://www.w3.org/2000/svg" xmlns:xlink="http://www.w3.org/1999/xlink">
    <!-- Generator: Sketch 64 (93537) - https://sketch.com -->
    <title>logo w outline</title>
    <desc>Created with Sketch.</desc>
    <g id="Page-1" stroke="none" stroke-width="1" fill="none" fill-rule="evenodd">
        <g id="RJ-Header-Mock-Copy" transform="translate(-323.000000, -70.000000)">
            <g id="logo-w-outline" transform="translate(331.000000, 78.000000)">
                <path d="M27.1648447,79.1114068 C8.3335494,100.007295 -3.99975489,133.455596 -3.99975489,171.457267 C-3.99975489,172.049211 -3.99676238,172.64005 -3.99079943,173.229754 C-3.55402219,173.63896 -3.11145325,174.040793 -2.66586203,174.439192 C17.8991143,192.82612 45.0171765,204 74.7379109,204 C104.877556,204 132.340613,192.508872 153.007342,173.657429 L152.994927,170.77461 C152.751079,133.306334 140.389309,99.9715918 121.625731,79.1127488 L121.625794,70.7108846 C124.983063,69.2042994 127.888434,66.8655089 130.078762,63.9538403 C132.811312,60.3213806 134.433398,55.7998545 134.433398,50.8978293 C134.433398,44.9077128 132.012443,39.4852728 128.100111,35.5599731 C124.182996,31.6298748 118.771237,29.2002013 112.794237,29.2002013 C112.604779,29.2002013 112.41589,29.2026478 112.227601,29.2075103 C112.621394,27.3543761 112.828845,25.4313353 112.828845,23.4596464 C112.828845,15.8783924 109.765084,9.01544785 104.813476,4.0474279 C99.8570864,-0.925390657 93.0095813,-4 85.4467011,-4 C78.8062042,-4 72.7176828,-1.62910489 67.9759922,2.31469622 C65.1930844,4.62932106 62.8751361,7.48653112 61.1823854,10.7244037 C59.0814493,8.5203141 56.6746589,6.61146407 54.0303927,5.0670858 C49.2391155,2.26875011 43.6690081,0.664491095 37.7252502,0.664491095 C28.7652845,0.664491095 20.6529559,4.30725824 14.7810137,10.1986637 C8.91385422,16.0852705 5.28381248,24.217231 5.28381248,33.2002013 C5.28381248,40.8133473 7.89182258,47.8149466 12.2580371,53.356953 C16.0721888,58.19823 21.2296786,61.9235904 27.1643564,63.971888 L27.1648447,79.1114068 Z" id="Path" stroke="#4A90E2" stroke-width="8" fill="#4A90E2" stroke-linejoin="round"></path>
                <g id="Logo1">
                    <path d="M74.9336516,59.9045346 C116.190245,59.9045346 149.635322,110.407992 149.635322,171.897452 L149.635887,171.880849 C129.783808,189.382338 103.718005,200 75.172315,200 C46.3974221,200 20.1424006,189.211148 0.231750559,171.457944 L0.231980907,171.24105 C0.231980907,109.751591 33.6770581,59.9045346 74.9336516,59.9045346 Z" id="Oval-5" fill="#ECC94B"></path>
                    <g id="Hat" transform="translate(9.539857, 0.000000)">
                        <ellipse id="Oval-2" stroke="#4A90E2" stroke-width="3" fill="#FFFFFF" stroke-linejoin="round" cx="28.5189395" cy="33.2002013" rx="28.5189395" ry="28.5357102"></ellipse>
                        <ellipse id="Oval-2" stroke="#4A90E2" stroke-width="3" fill="#FFFFFF" stroke-linejoin="round" cx="76.3704294" cy="23.4596464" rx="23.4458589" ry="23.4596464"></ellipse>
                        <ellipse id="Oval-2" stroke="#4A90E2" stroke-width="3" fill="#FFFFFF" stroke-linejoin="round" cx="103.792487" cy="50.8978293" rx="17.6872269" ry="17.697628"></ellipse>
                        <ellipse id="Oval-2" fill="#FFFFFF" cx="65.127386" cy="49.5968373" rx="25.9847196" ry="26"></ellipse>
                        <polygon id="Rectangle" fill="#FFFFFF" points="21.9404854 56.248275 108.637396 56.248275 108.637396 80.6682578 21.9404854 80.6682578"></polygon>
                        <polygon id="Rectangle" fill="#181E24" points="21.9404854 67.9294281 108.637396 67.9294281 108.637396 71.6682578 21.9404854 71.6682578"></polygon>
                    </g>
                </g>
                <g id="eye-copy" transform="translate(34.000000, 96.000000)">
                    <circle id="Oval-4" fill="#181E24" cx="17.264073" cy="17.264073" r="17.264073"></circle>
                    <circle id="Oval-4" fill="#FFFFFF" cx="17.264073" cy="10.1553371" r="5.58543539"></circle>
                </g>
                <g id="eye-copy-2" transform="translate(81.000000, 96.000000)">
                    <circle id="Oval-4" fill="#181E24" cx="17.264073" cy="17.264073" r="17.264073"></circle>
                    <circle id="Oval-4" fill="#FFFFFF" cx="17.264073" cy="10.1553371" r="5.58543539"></circle>
                </g>
                <path d="M74.1262541,144.483459 L74.2846431,144.663945 C74.4984197,144.905564 74.7254,145.15503 74.9996547,145.459917 L75.5161631,144.887378 L75.5936057,144.800868 L76.1112209,144.214983 C84.0027993,135.449628 97.2907955,136.024167 104.402781,145.506729 L105.426307,146.872338 C106.565379,148.388891 107.716869,149.896837 108.944236,151.336393 C111.172363,153.94973 113.859484,155.913673 117.219317,156.79539 C127.336971,159.451923 140.677503,145.139688 141.925885,140.968071 L142.291892,142.471283 C143.398569,147.074966 143.719604,149.041484 143.901819,151.586382 L143.936705,152.110416 C144.267135,157.590343 143.338244,162.856808 140.335957,167.566579 C136.38517,173.765156 130.442637,176.92632 123.609082,178.563961 C114.088694,180.846034 104.590968,180.274859 95.2042621,177.791984 L94.5041775,177.60467 C87.124065,175.606474 80.0692825,172.911299 75.1564611,166.440995 L74.9999368,166.232743 L74.9979665,166.235411 C69.9254919,173.061327 62.5061163,175.752329 54.7957379,177.791984 C45.4090315,180.274859 35.9113061,180.846034 26.3909178,178.563961 C19.5573635,176.92632 13.6148305,173.765156 9.66404292,167.566579 C6.66175559,162.856808 5.73286479,157.590343 6.06329535,152.110416 L6.09826286,151.585244 C6.2991852,148.7799 6.6689346,146.67689 8.07411468,140.968071 C9.32249745,145.139688 22.663029,159.451923 32.7806827,156.79539 C36.140516,155.913673 38.8276368,153.94973 41.0557639,151.336393 C42.6513405,149.46497 44.1186857,147.477969 45.5972189,145.506729 C52.7810428,135.928383 66.2662753,135.43893 74.1262541,144.483459 Z" id="stache" fill="#181E24"></path>
            </g>
        </g>
    </g>
</svg>