<?xml version="1.0" encoding="UTF-8"?>
<svg width="1000px" height="1000px" viewBox="0 0 1000 1000" version="1.1" xmlns="http://www.w3.org/2000/svg" xmlns:xlink="http://www.w3.org/1999/xlink">
    <!-- Generator: Sketch 64 (93537) - https://sketch.com -->
    <title>RJ logo</title>
    <desc>Created with Sketch.</desc>
    <g id="RJ-logo" stroke="none" stroke-width="1" fill="none" fill-rule="evenodd">
        <rect fill="#4A90E2" x="0" y="0" width="1000" height="1000"></rect>
        <path d="M233.313553,-9.4261468e-15 L766.686447,9.4261468e-15 C847.814652,-5.47686274e-15 877.2337,8.44713061 906.892959,24.309076 C936.552218,40.1710215 959.828979,63.4477817 975.690924,93.107041 C991.552869,122.7663 1000,152.185348 1000,233.313553 L1000,766.686447 C1000,847.814652 991.552869,877.2337 975.690924,906.892959 C959.828979,936.552218 936.552218,959.828979 906.892959,975.690924 C877.2337,991.552869 847.814652,1000 766.686447,1000 L233.313553,1000 C152.185348,1000 122.7663,991.552869 93.107041,975.690924 C63.4477817,959.828979 40.1710215,936.552218 24.309076,906.892959 C8.44713061,877.2337 3.65124183e-15,847.814652 -6.28409787e-15,766.686447 L6.28409787e-15,233.313553 C-3.65124183e-15,152.185348 8.44713061,122.7663 24.309076,93.107041 C40.1710215,63.4477817 63.4477817,40.1710215 93.107041,24.309076 C122.7663,8.44713061 152.185348,5.47686274e-15 233.313553,-9.4261468e-15 Z" id="Rectangle" fill="#4A90E2"></path>
        <g id="Logo1" transform="translate(186.000000, 85.000000)">
            <path d="M313.972,251 C486.837127,251 626.972,462.609488 626.972,720.250324 L626.975318,720.179915 C543.794988,793.511655 434.578899,838 314.972,838 C194.404371,838 84.3951492,792.794089 0.969318008,718.407252 L0.972,717.5 C0.972,459.859164 141.106873,251 313.972,251 Z" id="Oval-5" fill="#ECC94B"></path>
            <g id="Hat" transform="translate(39.972000, 0.000000)" fill="#FFFFFF">
                <polygon id="Rectangle" points="91.9306337 235.680272 455.190689 235.680272 455.190689 338 91.9306337 338"></polygon>
                <ellipse id="Oval-2" cx="119.494357" cy="139.108844" rx="119.494357" ry="119.564626"></ellipse>
                <ellipse id="Oval-2" cx="319.992099" cy="98.2959184" rx="98.238149" ry="98.2959184"></ellipse>
                <ellipse id="Oval-2" cx="434.890519" cy="213.261905" rx="74.1094808" ry="74.1530612"></ellipse>
                <ellipse id="Oval-2" cx="272.883747" cy="197.166667" rx="98.238149" ry="98.2959184"></ellipse>
            </g>
            <g id="eye-copy" transform="translate(148.000000, 406.000000)">
                <circle id="Oval-4" fill="#181E24" cx="69.0562921" cy="69.0562921" r="69.0562921"></circle>
                <circle id="Oval-4" fill="#FFFFFF" cx="69.0562921" cy="40.6213483" r="22.3417416"></circle>
            </g>
            <g id="eye-copy-2" transform="translate(342.000000, 406.000000)">
                <circle id="Oval-4" fill="#181E24" cx="69.0562921" cy="69.0562921" r="69.0562921"></circle>
                <circle id="Oval-4" fill="#FFFFFF" cx="69.0562921" cy="40.6213483" r="22.3417416"></circle>
            </g>
            <path d="M310.970685,598.625101 L311.605389,599.338449 C312.462044,600.293418 313.37161,601.279404 314.470616,602.484435 L316.540393,600.221543 L316.850724,599.87962 L318.924936,597.563981 C350.548435,562.919957 403.796709,565.190755 432.296188,602.669455 L436.397708,608.066859 C440.962252,614.060857 445.576557,620.02083 450.494917,625.710504 C459.423571,636.03941 470.191526,643.801662 483.655206,647.286543 C524.199137,657.786174 577.657934,601.218767 582.660511,584.730948 L584.127192,590.672212 C588.561918,608.867722 589.848382,616.640152 590.578563,626.698557 L590.71836,628.76974 C592.042477,650.428499 588.320182,671.243575 576.289277,689.858383 C560.457498,714.357522 536.644304,726.851645 509.260568,733.324226 C471.110027,742.34385 433.050301,740.086348 395.435456,730.27308 L392.630045,729.532742 C363.056116,721.635113 334.785864,710.982754 315.098978,685.409645 L314.471747,684.586555 L314.463851,684.5971 C294.137196,711.575722 264.40593,722.211585 233.508544,730.27308 C195.893699,740.086348 157.833973,742.34385 119.683432,733.324226 C92.2996957,726.851645 68.4865019,714.357522 52.6547227,689.858383 C40.6238177,671.243575 36.9015234,650.428499 38.2256401,628.76974 L38.3657635,626.694059 C39.1709088,615.606273 40.6525857,607.294374 46.2834885,584.730948 C51.2860659,601.218767 104.744863,657.786174 145.288794,647.286543 C158.752474,643.801662 169.520429,636.03941 178.449083,625.710504 C184.842951,618.313928 190.722965,610.460545 196.647812,602.669455 C225.435164,564.812182 279.473813,562.877675 310.970685,598.625101 Z" id="stache" fill="#181E24"></path>
        </g>
    </g>
</svg>